<?xml version="1.0" encoding="UTF-8" standalone="no"?>
<!DOCTYPE svg PUBLIC "-//W3C//DTD SVG 1.1//EN" "http://www.w3.org/Graphics/SVG/1.1/DTD/svg11.dtd">
<svg width="100%" height="100%" viewBox="0 0 1108 732" version="1.1" xmlns="http://www.w3.org/2000/svg" xmlns:xlink="http://www.w3.org/1999/xlink" xml:space="preserve" xmlns:serif="http://www.serif.com/" style="fill-rule:evenodd;clip-rule:evenodd;stroke-miterlimit:10;">
    <g transform="matrix(1,0,0,1,-46,-84.41)">
        <path d="M813.68,415.2L820.57,412.5C821.23,412.24 821.88,411.96 822.57,411.69C799.09,403.045 783.399,380.547 783.399,355.526C783.399,324.726 807.175,298.699 837.85,295.92L833.05,320.12L851.27,296.2L851.43,296.2C883.961,300.672 907.053,331.117 902.59,363.65C902.44,364.78 902.2,365.88 901.99,366.99C907.6,362.56 912.86,357.67 916.8,351.99C924.8,340.45 927.51,326.23 930.27,308.82C935.74,274.34 940.67,239.48 945.11,204.64C917.066,196.179 899.154,168.304 903.11,139.28C903.36,137.46 903.71,135.69 904.11,133.94C904.21,133.5 904.31,133.06 904.42,132.63C904.85,130.94 905.33,129.28 905.89,127.63C905.98,127.36 906.1,127.11 906.19,126.85C906.69,125.48 907.19,124.13 907.84,122.85C908.06,122.35 908.28,121.85 908.51,121.38C909.2,119.95 909.93,118.55 910.73,117.19C911,116.74 911.29,116.31 911.56,115.86C912.18,114.86 912.83,113.86 913.5,112.93C913.86,112.43 914.21,111.93 914.58,111.44L914.85,111.05C932.3,88.21 963.87,81.02 989.49,94.05L983.25,125.54L1001.25,101.9C1021.07,118.69 1027.71,146.606 1017.57,170.52L1017.64,170.52C1017.47,170.92 1017.26,171.3 1017.09,171.7C1016.76,172.44 1016.42,173.17 1016.09,173.9C1015.63,174.83 1015.09,175.74 1014.64,176.64C1014.26,177.32 1013.89,178 1013.48,178.64C1012.89,179.64 1012.25,180.54 1011.61,181.47C1011.23,182.01 1010.88,182.57 1010.49,183.1C1009.49,184.49 1008.37,185.82 1007.23,187.1C1006.83,187.55 1006.4,187.96 1005.98,188.4C1005.17,189.26 1004.36,190.11 1003.5,190.92C1002.97,191.42 1002.41,191.92 1001.86,192.38C1001.07,193.08 1000.26,193.76 999.43,194.38C998.84,194.85 998.24,195.3 997.64,195.74C996.77,196.37 995.89,196.96 995,197.55C994.4,197.94 993.8,198.33 993.19,198.7C992.19,199.31 991.14,199.87 990.09,200.42C989.56,200.69 989.09,200.99 988.5,201.25C986.92,202.02 985.3,202.73 983.65,203.36C983.34,203.48 983.01,203.57 982.7,203.68C981.32,204.18 979.93,204.68 978.52,205.03C977.91,205.2 977.29,205.34 976.67,205.49C975.52,205.77 974.36,206.03 973.19,206.25C972.523,206.37 971.833,206.48 971.12,206.58C969.97,206.75 968.81,206.88 967.64,206.98C966.95,207.04 966.27,207.1 965.57,207.14C964.31,207.2 963.04,207.21 961.77,207.2C961.687,207.195 961.603,207.195 961.52,207.2C959.64,221.867 957.667,236.533 955.6,251.2C966.873,235.981 984.73,226.986 1003.67,226.986C1017.68,226.986 1031.25,231.905 1042,240.88L1026.32,267.46L1051.53,250.87C1061.06,263.481 1065.2,279.374 1063.03,295.03C1062.29,300.529 1060.78,305.896 1058.53,310.97C1049.02,332.694 1027.44,346.795 1003.73,346.795C978.457,346.795 955.789,330.786 947.34,306.97C947.11,308.45 946.89,309.97 946.66,311.43C944.22,326.78 941.19,345.89 930.43,361.43C923.14,371.99 913.1,379.79 903.34,386.65C896.993,391.117 890.5,395.373 883.86,399.42C876.891,405.883 868.481,410.593 859.33,413.16C848.663,418.62 837.767,423.557 826.64,427.97L819.69,430.69C813.44,433.13 807.04,435.63 800.69,438.29C801.69,438.38 802.69,438.46 803.69,438.59C829.439,442.126 850.084,462.036 854.55,487.64L812.24,510.75L854.42,508.86C852.731,518.213 848.814,527.022 843,534.54C823.291,560.053 786.331,565.3 760.3,546.28L762.4,550.19C763.8,552.77 765.18,555.34 766.52,557.89C784.85,592.63 786.18,622.63 770.27,642.38L757.27,631.93C772.76,612.71 760.47,582.16 751.77,565.66C750.45,563.16 749.09,560.66 747.77,558.1C736,536.27 722.65,511.53 728,485.2C736,445.5 779.05,428.7 813.68,415.2Z" style="fill:rgb(242,242,242);fill-rule:nonzero;"/>
    </g>
    <g transform="matrix(1,0,0,1,-46,-84.41)">
        <path d="M315.6,603.42L310.22,601.31C309.7,601.11 309.22,600.88 308.68,600.68C327.009,593.92 339.254,576.353 339.254,556.818C339.254,532.766 320.693,512.439 296.74,510.26L300.49,529.16L286.27,510.48L286.14,510.48C263.081,513.629 245.707,533.537 245.707,556.81C245.707,558.934 245.852,561.056 246.14,563.16C246.26,564.05 246.45,564.9 246.61,565.77C242.198,562.453 238.302,558.5 235.05,554.04C228.82,545.04 226.68,533.92 224.52,520.33C220.29,493.4 216.45,466.18 213,439C234.893,432.382 248.868,410.611 245.77,387.95C245.57,386.53 245.3,385.15 244.98,383.78L244.74,382.78C244.4,381.46 244.03,380.16 243.59,378.9C243.52,378.69 243.43,378.49 243.35,378.29C242.96,377.22 242.53,376.17 242.07,375.14C241.89,374.76 241.72,374.37 241.54,373.99C241,372.88 240.43,371.79 239.81,370.73C239.6,370.37 239.37,370.03 239.16,369.73C238.67,368.95 238.16,368.18 237.64,367.44C237.36,367.05 237.09,366.65 236.8,366.27L236.59,365.97C222.962,348.136 198.321,342.505 178.3,352.65L183.18,377.25L169.11,358.79C153.635,371.903 148.448,393.702 156.36,412.38L156.31,412.38C156.44,412.69 156.6,412.99 156.74,413.3C157,413.88 157.26,414.45 157.54,415.02C157.9,415.74 158.28,416.45 158.68,417.15C158.97,417.69 159.26,418.22 159.58,418.74C160.04,419.49 160.58,420.22 161.04,420.95C161.34,421.37 161.61,421.81 161.92,422.22C162.72,423.3 163.57,424.34 164.46,425.35C164.77,425.7 165.11,426.02 165.46,426.35C166.09,427.02 166.73,427.68 167.4,428.35C167.81,428.75 168.25,429.12 168.68,429.49C169.3,430.043 169.93,430.573 170.57,431.08C171.03,431.44 171.5,431.79 171.97,432.14C172.65,432.63 173.34,433.14 174.03,433.55C174.5,433.86 174.97,434.16 175.45,434.45C176.24,434.93 177.05,435.36 177.87,435.79C178.29,436.01 178.69,436.24 179.11,436.45C180.35,437.05 181.61,437.6 182.9,438.09C183.14,438.19 183.4,438.25 183.64,438.34C184.71,438.73 185.8,439.09 186.91,439.4C187.38,439.53 187.91,439.64 188.35,439.75C189.25,439.97 190.15,440.18 191.07,440.35L192.68,440.61C193.58,440.74 194.49,440.84 195.4,440.92C195.94,440.97 196.47,441.01 197.02,441.04C198.02,441.09 199.02,441.1 200.02,441.09L200.21,441.09C201.677,452.57 203.217,464.04 204.83,475.5C196.031,463.582 182.067,456.534 167.252,456.534C156.328,456.534 145.742,460.367 137.35,467.36L149.49,488L129.81,475.05C122.358,484.894 119.118,497.309 120.81,509.54C121.391,513.84 122.579,518.035 124.34,522C131.773,538.965 148.62,549.978 167.142,549.978C186.876,549.978 204.578,537.477 211.18,518.88C211.36,520.03 211.53,521.2 211.71,522.36C213.61,534.36 215.98,549.28 224.38,561.44C230.08,569.68 237.92,575.77 245.54,581.13C250.5,584.623 255.57,587.957 260.75,591.13C266.196,596.177 272.763,599.858 279.91,601.87C288.23,606.13 296.75,610.01 305.45,613.43L310.87,615.56C315.75,617.46 320.75,619.41 325.68,621.49C324.9,621.56 324.11,621.62 323.32,621.73C303.22,624.484 287.099,640.017 283.6,660L316.6,678L283.66,676.53C287.776,698.586 307.209,714.728 329.646,714.728C339.56,714.728 349.223,711.576 357.23,705.73C356.68,706.73 356.14,707.73 355.59,708.78C354.5,710.78 353.42,712.78 352.37,714.78C338.06,741.91 337.02,765.35 349.45,780.78L359.58,772.62C347.48,757.62 357.08,733.75 363.88,720.86C364.88,718.91 365.97,716.94 367.04,714.96C376.23,697.96 386.65,678.59 382.5,658.02C376.29,627.08 342.64,614 315.6,603.42Z" style="fill:rgb(242,242,242);fill-rule:nonzero;"/>
    </g>
    <ellipse cx="554" cy="707.68" rx="554" ry="23.5" style="fill:rgb(63,61,86);"/>
    <ellipse cx="554" cy="707.68" rx="554" ry="23.5" style="fill-opacity:0.1;"/>
    <ellipse cx="554" cy="694.68" rx="554" ry="23.5" style="fill:rgb(63,61,86);"/>
    <g transform="matrix(1,0,0,1,-46,-84.41)">
        <path d="M131,770.73C128,765.22 131.4,758.47 135.28,753.55C139.16,748.63 143.89,743.55 143.79,737.26C143.65,728.26 134.09,722.95 126.46,718.18C120.799,714.637 115.576,710.438 110.9,705.67C108.946,703.832 107.328,701.666 106.12,699.27C104.54,695.75 104.59,691.75 104.69,687.89C105.023,675.05 105.657,662.223 106.59,649.41" style="fill:none;stroke:rgb(63,61,86);stroke-width:4px;"/>
    </g>
    <g transform="matrix(1,0,0,1,-46,-84.41)">
        <path d="M92.11,648.7C92.329,643.931 94.973,639.592 99.11,637.21L102.25,643.42L102.16,635.9C103.657,635.454 105.219,635.265 106.78,635.34C114.193,635.703 120.096,641.901 120.096,649.323C120.096,657.003 113.776,663.323 106.096,663.323C98.416,663.323 92.096,657.003 92.096,649.323C92.096,649.115 92.101,648.908 92.11,648.7Z" style="fill:rgb(222,214,239);fill-rule:nonzero;"/>
    </g>
    <g transform="matrix(1,0,0,1,-46,-84.41)">
        <path d="M117.14,743.7C119.513,748.422 124.365,751.415 129.65,751.415C137.132,751.415 143.359,745.417 143.64,737.94C143.74,736.001 143.43,734.062 142.73,732.25C140.685,726.8 135.444,723.169 129.623,723.169C123.743,723.169 118.463,726.872 116.46,732.4L125.23,739.53L115.59,737.29C115.585,739.52 116.116,741.719 117.14,743.7Z" style="fill:rgb(222,214,239);fill-rule:nonzero;"/>
    </g>
    <g transform="matrix(1,0,0,1,-46,-84.41)">
        <path d="M124.07,716.45C124.421,716.477 124.774,716.49 125.126,716.49C132.806,716.49 139.126,710.17 139.126,702.49C139.126,696.09 134.738,690.466 128.53,688.91L128.6,694.7L125.42,688.41C125.202,688.4 124.983,688.395 124.765,688.395C117.063,688.395 110.725,694.733 110.725,702.435C110.725,709.89 116.663,716.112 124.11,716.46L124.07,716.45Z" style="fill:rgb(222,214,239);fill-rule:nonzero;"/>
    </g>
    <g transform="matrix(1,0,0,1,-46,-84.41)">
        <path d="M90,693.78C90.22,693.79 90.44,693.796 90.66,693.796C98.349,693.796 104.676,687.469 104.676,679.78C104.676,672.34 98.752,666.13 91.32,665.78C88.696,665.65 86.087,666.267 83.8,667.56L86.28,674.36L81.17,669.46C78.438,671.962 76.808,675.449 76.64,679.15C76.572,680.444 76.694,681.741 77,683C78.43,689.078 83.762,693.5 90,693.78Z" style="fill:rgb(222,214,239);fill-rule:nonzero;"/>
    </g>
    <g transform="matrix(1,0,0,1,-46,-84.41)">
        <path d="M94,652.44C97.24,652.8 100.39,653.81 103.64,654.01C106.89,654.21 110.46,653.43 112.52,650.91C113.63,649.54 114.18,647.82 115.11,646.34C116.001,644.958 117.216,643.815 118.65,643.01C119.552,644.896 120.021,646.961 120.021,649.052C120.021,656.732 113.701,663.052 106.021,663.052C99.573,663.052 93.92,658.598 92.41,652.33C92.94,652.35 93.47,652.39 94,652.44Z" style="fill-opacity:0.1;fill-rule:nonzero;"/>
    </g>
    <g transform="matrix(1,0,0,1,-46,-84.41)">
        <path d="M90,693.78C90.236,693.792 90.473,693.798 90.709,693.798C98.39,693.798 104.709,687.478 104.709,679.798C104.709,677.716 104.245,675.66 103.35,673.78C102.236,674.532 101.278,675.493 100.53,676.61C99.53,678.12 98.92,679.86 97.75,681.25C95.56,683.82 91.83,684.66 88.44,684.5C85.05,684.34 81.78,683.39 78.44,683.08C77.97,683.08 77.5,683 77.03,682.99C78.453,689.062 83.77,693.486 90,693.78Z" style="fill-opacity:0.1;fill-rule:nonzero;"/>
    </g>
    <g transform="matrix(1,0,0,1,-46,-84.41)">
        <path d="M124.07,716.45C124.309,716.462 124.549,716.468 124.788,716.468C132.468,716.468 138.788,710.149 138.788,702.468C138.788,700.475 138.363,698.505 137.54,696.69C136.374,697.448 135.357,698.414 134.54,699.54C133.45,701.08 132.77,702.85 131.54,704.27C129.18,706.91 125.2,707.84 121.61,707.75C118.02,707.66 114.79,706.82 111.33,706.56C113.056,712.204 118.174,716.177 124.07,716.45Z" style="fill-opacity:0.1;fill-rule:nonzero;"/>
    </g>
    <g transform="matrix(1,0,0,1,-46,-84.41)">
        <path d="M117.14,743.7C119.513,748.422 124.365,751.415 129.65,751.415C137.132,751.415 143.359,745.417 143.64,737.94C143.74,736.001 143.43,734.062 142.73,732.25C141.574,733.006 140.536,733.93 139.65,734.99C138.31,736.62 137.44,738.46 135.89,739.99C133.02,742.81 128.39,743.99 124.27,744.08C121.888,744.09 119.507,743.963 117.14,743.7Z" style="fill-opacity:0.1;fill-rule:nonzero;"/>
    </g>
    <g transform="matrix(1,0,0,1,-46,-84.41)">
        <path d="M152.19,764.39C152.19,764.39 141.11,764.05 137.78,761.67C134.45,759.29 120.78,756.45 119.91,760.27C119.04,764.09 103.26,779.27 115.77,779.33C128.28,779.39 144.83,777.33 148.16,775.33C151.49,773.33 152.19,764.39 152.19,764.39Z" style="fill:rgb(101,99,128);fill-rule:nonzero;"/>
    </g>
    <g transform="matrix(1,0,0,1,-46,-84.41)">
        <path d="M115.54,778C128.05,778.1 144.6,776 147.94,774C150.47,772.46 151.48,766.91 151.82,764.35L152.19,764.35C152.19,764.35 151.49,773.28 148.19,775.35C144.89,777.42 128.3,779.43 115.8,779.35C112.19,779.35 110.94,778.04 111.01,776.13C111.48,777.26 112.86,778 115.54,778Z" style="fill-opacity:0.2;fill-rule:nonzero;"/>
    </g>
    <g transform="matrix(1,0,0,1,-46,-84.41)">
        <path d="M1101,779.73C1098,774.22 1101.4,767.47 1105.28,762.55C1109.16,757.63 1113.89,752.55 1113.79,746.26C1113.65,737.26 1104.09,731.95 1096.46,727.18C1090.8,723.637 1085.58,719.438 1080.9,714.67C1078.95,712.832 1077.33,710.666 1076.12,708.27C1074.54,704.75 1074.59,700.75 1074.69,696.89C1075.02,684.05 1075.65,671.223 1076.59,658.41" style="fill:none;stroke:rgb(63,61,86);stroke-width:4px;"/>
    </g>
    <g transform="matrix(1,0,0,1,-46,-84.41)">
        <path d="M1062.11,657.7C1062.33,652.931 1064.97,648.592 1069.11,646.21L1072.25,652.42L1072.16,644.9C1073.66,644.454 1075.22,644.265 1076.78,644.34C1084.19,644.708 1090.09,650.904 1090.09,658.323C1090.09,666.003 1083.77,672.323 1076.09,672.323C1068.41,672.323 1062.09,666.003 1062.09,658.323C1062.09,658.115 1062.09,657.907 1062.1,657.7L1062.11,657.7Z" style="fill:rgb(222,214,239);fill-rule:nonzero;"/>
    </g>
    <g transform="matrix(1,0,0,1,-46,-84.41)">
        <path d="M1087.14,752.7C1089.51,757.422 1094.37,760.415 1099.65,760.415C1107.13,760.415 1113.36,754.417 1113.64,746.94C1113.74,745.001 1113.43,743.062 1112.73,741.25C1110.68,735.8 1105.44,732.169 1099.62,732.169C1093.74,732.169 1088.46,735.872 1086.46,741.4L1095.23,748.53L1085.59,746.29C1085.59,748.52 1086.12,750.719 1087.14,752.7Z" style="fill:rgb(222,214,239);fill-rule:nonzero;"/>
    </g>
    <g transform="matrix(1,0,0,1,-46,-84.41)">
        <path d="M1094.07,725.45C1094.42,725.477 1094.77,725.49 1095.13,725.49C1102.81,725.49 1109.13,719.17 1109.13,711.49C1109.13,705.09 1104.74,699.466 1098.53,697.91L1098.6,703.7L1095.42,697.41C1095.2,697.4 1094.98,697.395 1094.77,697.395C1087.06,697.395 1080.72,703.733 1080.72,711.435C1080.72,718.89 1086.66,725.112 1094.11,725.46L1094.07,725.45Z" style="fill:rgb(222,214,239);fill-rule:nonzero;"/>
    </g>
    <g transform="matrix(1,0,0,1,-46,-84.41)">
        <path d="M1060,702.78C1060.22,702.79 1060.44,702.796 1060.66,702.796C1068.35,702.796 1074.68,696.469 1074.68,688.78C1074.68,681.34 1068.75,675.13 1061.32,674.78C1058.7,674.65 1056.09,675.267 1053.8,676.56L1056.28,683.36L1051.17,678.46C1048.44,680.962 1046.81,684.449 1046.64,688.15C1046.57,689.444 1046.69,690.741 1047,692C1048.43,698.078 1053.76,702.5 1060,702.78Z" style="fill:rgb(222,214,239);fill-rule:nonzero;"/>
    </g>
    <g transform="matrix(1,0,0,1,-46,-84.41)">
        <path d="M1064,661.44C1067.24,661.8 1070.39,662.81 1073.64,663.01C1076.89,663.21 1080.46,662.43 1082.52,659.91C1083.63,658.54 1084.18,656.82 1085.11,655.34C1086,653.958 1087.22,652.815 1088.65,652.01C1089.55,653.896 1090.02,655.961 1090.02,658.052C1090.02,665.732 1083.7,672.052 1076.02,672.052C1069.57,672.052 1063.92,667.598 1062.41,661.33C1062.94,661.35 1063.47,661.39 1064,661.44Z" style="fill-opacity:0.1;fill-rule:nonzero;"/>
    </g>
    <g transform="matrix(1,0,0,1,-46,-84.41)">
        <path d="M1060,702.78C1060.24,702.792 1060.47,702.798 1060.71,702.798C1068.39,702.798 1074.71,696.478 1074.71,688.798C1074.71,686.716 1074.25,684.66 1073.35,682.78C1072.24,683.532 1071.28,684.493 1070.53,685.61C1069.53,687.12 1068.92,688.86 1067.75,690.25C1065.56,692.82 1061.83,693.66 1058.44,693.5C1055.05,693.34 1051.78,692.39 1048.44,692.08C1047.97,692.08 1047.5,692 1047.03,691.99C1048.45,698.062 1053.77,702.486 1060,702.78Z" style="fill-opacity:0.1;fill-rule:nonzero;"/>
    </g>
    <g transform="matrix(1,0,0,1,-46,-84.41)">
        <path d="M1094.07,725.45C1094.31,725.462 1094.55,725.468 1094.79,725.468C1102.47,725.468 1108.79,719.149 1108.79,711.468C1108.79,709.475 1108.36,707.505 1107.54,705.69C1106.37,706.448 1105.36,707.414 1104.54,708.54C1103.45,710.08 1102.77,711.85 1101.54,713.27C1099.18,715.91 1095.2,716.84 1091.61,716.75C1088.02,716.66 1084.79,715.82 1081.33,715.56C1083.06,721.204 1088.17,725.177 1094.07,725.45Z" style="fill-opacity:0.1;fill-rule:nonzero;"/>
    </g>
    <g transform="matrix(1,0,0,1,-46,-84.41)">
        <path d="M1087.14,752.7C1089.51,757.422 1094.37,760.415 1099.65,760.415C1107.13,760.415 1113.36,754.417 1113.64,746.94C1113.74,745.001 1113.43,743.062 1112.73,741.25C1111.57,742.006 1110.54,742.93 1109.65,743.99C1108.31,745.62 1107.44,747.46 1105.89,748.99C1103.02,751.81 1098.39,752.99 1094.27,753.08C1091.89,753.09 1089.51,752.963 1087.14,752.7Z" style="fill-opacity:0.1;fill-rule:nonzero;"/>
    </g>
    <g transform="matrix(1,0,0,1,-46,-84.41)">
        <path d="M1122.19,773.39C1122.19,773.39 1111.11,773.05 1107.78,770.67C1104.45,768.29 1090.78,765.45 1089.91,769.27C1089.04,773.09 1073.26,788.27 1085.77,788.33C1098.28,788.39 1114.83,786.33 1118.16,784.33C1121.49,782.33 1122.19,773.39 1122.19,773.39Z" style="fill:rgb(101,99,128);fill-rule:nonzero;"/>
    </g>
    <g transform="matrix(1,0,0,1,-46,-84.41)">
        <path d="M1085.54,787C1098.05,787.1 1114.6,785 1117.94,783C1120.47,781.46 1121.48,775.91 1121.82,773.35L1122.19,773.35C1122.19,773.35 1121.49,782.28 1118.19,784.35C1114.89,786.42 1098.3,788.43 1085.8,788.35C1082.19,788.35 1080.94,787.04 1081.01,785.13C1081.48,786.26 1082.86,787 1085.54,787Z" style="fill-opacity:0.2;fill-rule:nonzero;"/>
    </g>
    <g transform="matrix(1,0,0,1,-46,-84.41)">
        <path d="M791.57,415.56C784.957,413.293 778.29,411.193 771.57,409.26C772.677,404.733 773.707,400.183 774.66,395.61C789.8,322.1 779.9,262.88 746.09,243.39C713.67,224.69 660.65,244.19 607.09,290.78C601.81,295.393 596.653,300.127 591.62,304.98C588.24,301.747 584.807,298.577 581.32,295.47C525.21,245.64 469,224.65 435.18,244.2C402.79,262.95 393.18,318.62 406.83,388.29C408.163,395.19 409.693,402.05 411.42,408.87C403.47,411.13 395.78,413.54 388.42,416.11C322.63,439 280.61,475 280.61,512.29C280.61,550.8 325.72,589.43 394.25,612.85C399.81,614.737 405.41,616.49 411.05,618.11C409.223,625.443 407.597,632.837 406.17,640.29C393.17,708.75 403.33,763.11 435.63,781.74C469,801 525,781.2 579.52,733.54C583.83,729.77 588.15,725.77 592.52,721.59C597.973,726.85 603.57,731.957 609.31,736.91C662.13,782.36 714.31,800.72 746.57,782.03C779.9,762.74 790.73,704.34 776.67,633.3C775.603,627.873 774.36,622.337 772.94,616.69C776.88,615.53 780.733,614.327 784.5,613.08C855.74,589.48 902.1,551.32 902.1,512.29C902.1,474.86 858.72,438.67 791.6,415.56L791.57,415.56Z" style="fill:rgb(146,168,185);fill-rule:nonzero;"/>
    </g>
    <g transform="matrix(1,0,0,1,-46,-84.41)">
        <path d="M776.12,587.88C772.72,589.01 769.24,590.09 765.68,591.15C756.994,564.221 746.48,537.916 734.21,512.42C746.012,487.263 756.118,461.346 764.46,434.84C770.81,436.68 776.99,438.62 782.93,440.67C840.44,460.46 875.52,489.73 875.52,512.29C875.52,536.29 837.63,567.5 776.12,587.88ZM750.6,638.46C756.82,669.87 757.7,698.27 753.6,720.46C749.9,740.41 742.46,753.71 733.26,759.04C713.67,770.37 671.79,755.64 626.62,716.77C621.44,712.31 616.23,707.56 610.99,702.52C629.822,681.671 647.225,659.574 663.08,636.38C691.401,633.98 719.524,629.637 747.25,623.38C748.517,628.5 749.64,633.5 750.62,638.38L750.6,638.46ZM492.48,757.1C473.34,763.86 458.1,764.05 448.89,758.74C429.29,747.43 421.14,703.74 432.26,645.24C433.593,638.327 435.103,631.45 436.79,624.61C464.401,630.538 492.382,634.591 520.54,636.74C536.859,659.853 554.681,681.867 573.89,702.64C570.03,706.38 566.083,710.017 562.05,713.55C537.94,734.63 513.77,749.55 492.48,757.1ZM402.84,587.73C372.53,577.37 347.51,563.91 330.35,549.23C314.94,536.03 307.16,522.92 307.16,512.29C307.16,489.66 340.9,460.79 397.16,441.18C404.227,438.72 411.357,436.477 418.55,434.45C426.907,461.249 437.025,487.466 448.84,512.93C436.878,538.759 426.636,565.35 418.18,592.53C413.02,591.057 407.907,589.457 402.84,587.73ZM432.89,383.19C421.21,323.5 428.96,278.47 448.48,267.19C469.27,255.19 515.24,272.31 563.7,315.34C566.8,318.09 569.91,320.97 573.02,323.94C553.948,344.586 536.266,366.474 520.09,389.46C492.197,391.961 464.496,396.267 437.16,402.35C435.567,396.003 434.143,389.62 432.89,383.2L432.89,383.19ZM701,449.38C694.927,438.887 688.63,428.527 682.11,418.3C701.94,420.81 720.93,424.13 738.77,428.21C733.045,446.37 726.407,464.23 718.88,481.72C713.14,470.82 707.18,460.04 701,449.38ZM591.64,342.91C604.563,357 616.769,371.732 628.21,387.05C603.737,385.897 579.253,385.897 554.76,387.05C566.83,371.13 579.2,356.33 591.64,342.92L591.64,342.91ZM481.64,449.56C475.54,460.14 469.69,470.853 464.09,481.7C456.36,463.37 449.75,445.34 444.35,427.93C462.08,423.93 480.99,420.72 500.69,418.25C494.077,428.543 487.72,438.98 481.62,449.56L481.64,449.56ZM501.25,608.21C482.022,606.123 462.913,603.049 444,599C449.49,581.29 456.25,562.87 464.15,544.14C469.77,555 475.64,565.72 481.76,576.3C487.987,587.093 494.477,597.73 501.23,608.21L501.25,608.21ZM592.39,683.54C579.79,670 567.24,655 555,638.79C566.9,639.263 579.02,639.5 591.36,639.5C604.027,639.5 616.53,639.22 628.87,638.66C617.479,654.235 605.296,669.214 592.37,683.54L592.39,683.54ZM719.08,543.19C726.997,561.035 733.979,579.28 740,597.85C720.853,602.158 701.493,605.459 682,607.74C688.567,597.32 694.927,586.777 701.08,576.11C707.333,565.27 713.333,554.297 719.08,543.19ZM678.08,562.85C668.667,579.197 658.73,595.23 648.27,610.95C629.83,612.27 610.78,612.95 591.36,612.95C571.94,612.95 553.21,612.35 535.09,611.17C524.363,595.503 514.233,579.447 504.7,563C495.167,546.553 486.33,529.86 478.19,512.92C486.37,495.9 495.18,479.2 504.62,462.82C514.047,446.447 524.09,430.447 534.75,414.82C553.24,413.42 572.18,412.69 591.34,412.69C610.5,412.69 629.56,413.43 648.03,414.83C658.57,430.41 668.57,446.347 678.03,462.64C687.49,478.933 696.42,495.557 704.82,512.51C696.52,529.59 687.617,546.357 678.11,562.81L678.08,562.85ZM732.85,266.39C753.66,278.39 761.75,326.79 748.68,390.26C747.82,394.387 746.887,398.503 745.88,402.61C718.504,396.404 690.746,392.017 662.79,389.48C646.77,366.474 629.22,344.571 610.26,323.92C614.927,319.427 619.69,315.057 624.55,310.81C670.43,270.88 713.31,255.12 732.85,266.39Z" style="fill:white;fill-rule:nonzero;"/>
    </g>
    <g transform="matrix(1,0,0,1,-46,-84.41)">
        <path d="M591.34,456.79C621.786,456.79 646.84,481.844 646.84,512.29C646.84,542.736 621.786,567.79 591.34,567.79C560.894,567.79 535.84,542.736 535.84,512.29C535.84,512.287 535.84,512.283 535.84,512.28C535.84,481.839 560.889,456.79 591.33,456.79C591.333,456.79 591.337,456.79 591.34,456.79" style="fill:rgb(146,168,185);fill-rule:nonzero;"/>
    </g>
    <g transform="matrix(1,0,0,1,-46,-84.41)">
        <path d="M605.26,104.81C605.26,113.916 597.766,121.41 588.66,121.41C579.554,121.41 572.06,113.916 572.06,104.81C572.06,95.704 579.554,88.21 588.66,88.21C588.687,88.21 588.713,88.21 588.74,88.21C597.803,88.21 605.26,95.667 605.26,104.73C605.26,104.757 605.26,104.783 605.26,104.81Z" style="fill:rgb(63,61,86);fill-rule:nonzero;"/>
    </g>
    <g transform="matrix(1,0,0,1,-46,-84.41)">
        <path d="M575.4,109C574.037,106.537 573.322,103.768 573.322,100.953C573.322,92.607 579.608,85.49 587.89,84.46C587.696,84.453 587.503,84.45 587.309,84.45C578.203,84.45 570.709,91.943 570.709,101.05C570.709,110.156 578.203,117.65 587.309,117.65C587.974,117.65 588.639,117.61 589.3,117.53C583.5,117.316 578.218,114.074 575.4,109Z" style="fill:rgb(63,61,86);fill-rule:nonzero;"/>
    </g>
    <rect x="521.91" y="43.52" width="44.47" height="69.37" style="fill:rgb(63,61,86);"/>
    <rect x="521.91" y="43.52" width="44.47" height="69.37" style="fill-opacity:0.1;"/>
    <g transform="matrix(1,0,0,1,-46,-84.41)">
        <path d="M497.66,379.61C497.66,379.61 492.91,392.66 481.66,394.44C470.41,396.22 463.87,399.18 463.87,399.18L490.55,416.37L504.78,414.59C504.78,414.59 506.56,396.21 512.49,392.06C518.42,387.91 497.66,379.61 497.66,379.61Z" style="fill:rgb(160,97,106);fill-rule:nonzero;"/>
    </g>
    <g transform="matrix(1,0,0,1,-46,-84.41)">
        <path d="M690.34,379.61C690.34,379.61 695.09,392.66 706.34,394.44C717.59,396.22 724.13,399.18 724.13,399.18L697.45,416.37L683.22,414.59C683.22,414.59 681.44,396.21 675.51,392.06C669.58,387.91 690.34,379.61 690.34,379.61Z" style="fill:rgb(160,97,106);fill-rule:nonzero;"/>
    </g>
    <g transform="matrix(1,0,0,1,-46,-84.41)">
        <path d="M560.5,264.59C560.5,264.59 553.39,268.15 551.02,275.27C551.02,275.27 538.02,279.42 530.86,290.68C530.86,290.68 521.96,300.17 520.78,304.91C519.6,309.65 506,338.11 506,338.11C506,338.11 492.36,382.58 485.25,387.32C485.25,387.32 507.78,382.58 511.93,405.11C511.93,405.11 517.26,405.11 523.19,384.36C529.12,363.61 543.35,338.11 543.35,338.11C543.35,338.11 548.09,320.33 552.24,317.36C556.39,314.39 562.91,300.76 568.84,304.36C574.77,307.96 613.9,303.76 613.9,303.76C613.9,303.76 637,314.4 637.58,321.51C638.16,328.62 642.32,329.22 642.91,335.15C643.5,341.08 665.44,387.91 665.44,387.91C665.44,387.91 669.59,400.91 670.78,403.91C670.78,403.91 683.78,372.49 701.02,390.28C701.02,390.28 700.42,378.42 695.09,371.28C689.76,364.14 666.63,308.44 666.63,308.44C666.63,308.44 664.26,300.14 661.89,297.77C659.52,295.4 641.13,276.42 634.61,276.42C634.61,276.42 631.06,267.53 626.91,266.34L560.5,264.59Z" style="fill:rgb(63,61,86);fill-rule:nonzero;"/>
    </g>
    <g transform="matrix(1,0,0,1,-46,-84.41)">
        <path d="M507.14,410.44C497.732,414.217 486.998,412.776 478.92,406.65C475.056,403.683 470.824,401.229 466.33,399.35C460.04,396.81 452.52,394.93 450.23,399.18C446.08,406.89 500.62,425.86 500.62,425.86C500.62,425.86 507.74,421.71 507.14,410.44Z" style="fill:rgb(63,61,86);fill-rule:nonzero;"/>
    </g>
    <g transform="matrix(1,0,0,1,-46,-84.41)">
        <path d="M680.86,410.44C690.268,414.217 701.002,412.776 709.08,406.65C712.944,403.683 717.176,401.229 721.67,399.35C727.96,396.81 735.48,394.93 737.77,399.18C741.92,406.89 687.38,425.86 687.38,425.86C687.38,425.86 680.26,421.71 680.86,410.44Z" style="fill:rgb(63,61,86);fill-rule:nonzero;"/>
    </g>
    <g transform="matrix(1,0,0,1,-46,-84.41)">
        <path d="M579.88,167.08C579.66,169.14 578.98,171.37 577.22,172.46C575.78,173.36 573.96,173.29 572.3,173.63C568.768,174.514 565.861,177.031 564.48,180.4C563.149,183.755 562.887,187.441 563.73,190.95C564.122,192.669 564.63,194.359 565.25,196.01C566.99,200.93 569.09,205.81 572.34,209.9C575.113,213.152 578.232,216.092 581.64,218.67C583.75,220.39 585.93,222.14 588.53,222.95C590.293,223.415 592.107,223.657 593.93,223.67C596.18,223.77 598.58,223.84 600.53,222.72C603.53,220.99 604.42,217.17 606.05,214.1C607.43,211.5 609.49,209.29 610.78,206.64C611.697,204.551 612.368,202.363 612.78,200.12L615.55,187.82C616.55,183.35 617.47,178.31 614.96,174.48C614.778,174.168 614.524,173.904 614.22,173.71C613.737,173.52 613.211,173.468 612.7,173.56C609.512,173.767 606.332,173.041 603.55,171.47C603.114,171.244 602.724,170.939 602.4,170.57C602.001,169.93 601.76,169.202 601.7,168.45C601.43,166.926 601.001,165.435 600.42,164C600.256,163.483 599.956,163.02 599.55,162.66C599.124,162.393 598.641,162.232 598.14,162.19C593.859,161.495 589.542,161.045 585.21,160.84C583.79,160.77 581.65,160.2 580.67,161.46C579.69,162.72 580,165.58 579.88,167.08Z" style="fill:rgb(160,97,106);fill-rule:nonzero;"/>
    </g>
    <g transform="matrix(1,0,0,1,-46,-84.41)">
        <path d="M579.88,167.08C579.66,169.14 578.98,171.37 577.22,172.46C575.78,173.36 573.96,173.29 572.3,173.63C568.768,174.514 565.861,177.031 564.48,180.4C563.149,183.755 562.887,187.441 563.73,190.95C564.122,192.669 564.63,194.359 565.25,196.01C566.99,200.93 569.09,205.81 572.34,209.9C575.113,213.152 578.232,216.092 581.64,218.67C583.75,220.39 585.93,222.14 588.53,222.95C590.293,223.415 592.107,223.657 593.93,223.67C596.18,223.77 598.58,223.84 600.53,222.72C603.53,220.99 604.42,217.17 606.05,214.1C607.43,211.5 609.49,209.29 610.78,206.64C611.697,204.551 612.368,202.363 612.78,200.12L615.55,187.82C616.55,183.35 617.47,178.31 614.96,174.48C614.778,174.168 614.524,173.904 614.22,173.71C613.737,173.52 613.211,173.468 612.7,173.56C609.512,173.767 606.332,173.041 603.55,171.47C603.114,171.244 602.724,170.939 602.4,170.57C602.001,169.93 601.76,169.202 601.7,168.45C601.43,166.926 601.001,165.435 600.42,164C600.256,163.483 599.956,163.02 599.55,162.66C599.124,162.393 598.641,162.232 598.14,162.19C593.859,161.495 589.542,161.045 585.21,160.84C583.79,160.77 581.65,160.2 580.67,161.46C579.69,162.72 580,165.58 579.88,167.08Z" style="fill-opacity:0.1;fill-rule:nonzero;"/>
    </g>
    <g transform="matrix(1,0,0,1,-46,-84.41)">
        <path d="M571.85,174.15C569.534,173.458 567.136,173.082 564.72,173.03C559,172.89 552.88,174.86 549.58,179.53C547.333,182.9 546.509,187.026 547.29,191C548.086,194.938 549.877,198.608 552.49,201.66C554,203.264 555.341,205.02 556.49,206.9C558.07,209.9 558.12,213.49 558.55,216.9C559.55,225.02 563.01,232.65 564.38,240.72C565.75,248.79 564.57,258.14 558.2,263.27C557.13,264.13 555.83,265.04 555.74,266.41C555.6,268.6 558.45,269.53 560.64,269.74C567.19,270.36 573.91,270.97 580.27,269.28C582.9,268.58 585.44,267.49 588.12,266.99C594.92,265.72 601.76,268.33 608.57,269.58C613.498,270.394 618.485,270.798 623.48,270.79C624.642,270.894 625.814,270.74 626.91,270.34C628.022,269.904 628.728,268.792 628.65,267.6C628.428,266.846 628.022,266.159 627.47,265.6C624.03,261.35 622.98,255.7 622.04,250.31L618.89,232.2C617.2,222.52 615.63,212 620.21,203.31C623.5,197.06 629.57,192.66 633.04,186.51C634.249,184.652 634.796,182.438 634.59,180.23C634.07,177.14 631.28,174.93 628.42,173.64C622.919,171.172 616.667,170.943 611,173C611.1,177.33 610,181.71 609.29,186L608.08,193C607.464,197.125 606.559,201.202 605.37,205.2C604.938,206.799 604.201,208.3 603.2,209.62C602.132,210.807 600.827,211.758 599.37,212.41C596.214,213.953 592.743,214.747 589.23,214.73C587.709,214.753 586.194,214.52 584.75,214.04C582.424,213.02 580.326,211.544 578.58,209.7C577.968,209.177 577.421,208.583 576.95,207.93C576.452,207.099 576.078,206.199 575.84,205.26C575.03,202.814 574.392,200.315 573.93,197.78C573.63,195.84 573.53,193.87 573.39,191.91C573,186.12 573,179.72 571.85,174.15Z" style="fill:rgb(222,214,239);fill-rule:nonzero;"/>
    </g>
    <g transform="matrix(1,0,0,1,-46,-84.41)">
        <path d="M565.84,288.9C565.84,288.9 563.47,320.33 578.29,325.66C593.11,330.99 580.07,299.57 580.07,299.57L575.32,290.09L565.84,288.9Z" style="fill:rgb(160,97,106);fill-rule:nonzero;"/>
    </g>
    <g transform="matrix(1,0,0,1,-46,-84.41)">
        <path d="M616.23,288.9C616.23,288.9 618.6,320.33 603.78,325.66C588.96,330.99 602,299.57 602,299.57L606.75,290.09L616.23,288.9Z" style="fill:rgb(160,97,106);fill-rule:nonzero;"/>
    </g>
    <g transform="matrix(1,0,0,1,-46,-84.41)">
        <path d="M552.79,184L548.05,191.71C548.05,191.71 552.2,218.39 552.79,223.13C553.302,226.55 554.098,229.922 555.17,233.21C556.242,236.498 555.76,247.44 555.76,252.78C555.76,258.12 558.76,267.01 558.76,267.01C559.178,272.05 560.185,277.024 561.76,281.83C564.13,288.35 566.5,296.06 566.5,296.06C566.5,296.06 569.5,287.76 581.32,300.21C584.057,297.433 584.057,292.907 581.32,290.13C578.583,287.353 577.77,274.13 577.77,265.82C577.77,257.51 571.24,217.82 571.24,217.82C571.24,217.82 567,172.7 552.79,184Z" style="fill-opacity:0.1;fill-rule:nonzero;"/>
    </g>
    <g transform="matrix(1,0,0,1,-46,-84.41)">
        <path d="M551.61,183.37L546.87,191.08C546.87,191.08 551.02,217.76 551.61,222.5C552.123,225.921 552.923,229.293 554,232.58C555.077,235.867 554.59,246.81 554.59,252.14C554.59,257.47 557.59,266.37 557.59,266.37C558.006,271.41 559.013,276.385 560.59,281.19C562.96,287.72 565.34,295.42 565.34,295.42C565.34,295.42 568.34,287.12 580.16,299.57C582.891,296.794 582.891,292.276 580.16,289.5C577.429,286.724 576.6,273.5 576.6,265.19C576.6,256.88 570.08,217.19 570.08,217.19C570.08,217.19 565.84,172.1 551.61,183.37Z" style="fill:rgb(222,214,239);fill-rule:nonzero;"/>
    </g>
    <g transform="matrix(1,0,0,1,-46,-84.41)">
        <path d="M629.87,179.22L632.87,182.75C632.87,182.75 636.36,202.93 628.65,228.43L626.28,251.55C626.28,251.55 622.13,271.12 621.54,275.86C620.95,280.6 620.95,281.19 619.76,282.97C619.017,283.827 619.017,285.113 619.76,285.97L616.2,298.97C616.2,298.97 610.87,292.45 600.2,300.75C600.2,300.75 597.2,296.01 599.6,291.86C602,287.71 601.97,285.93 601.38,284.74C600.79,283.55 603.75,277.63 603.75,276.44C603.75,275.25 607.93,248 607.93,248C607.93,248 609.71,221.32 611.49,212.43C612.58,206.96 612.56,194.77 612.37,186.19C612.18,177.25 623,172.41 629.37,178.69C629.52,178.85 629.7,179 629.87,179.22Z" style="fill-opacity:0.1;fill-rule:nonzero;"/>
    </g>
    <g transform="matrix(1,0,0,1,-46,-84.41)">
        <path d="M631.65,178L634.65,181.53C634.65,181.53 638.14,201.72 630.43,227.21L628.06,250.33C628.06,250.33 623.91,269.9 623.32,274.64C622.73,279.38 622.72,279.98 621.54,281.76C620.793,282.615 620.793,283.905 621.54,284.76L618,297.8C618,297.8 612.67,291.27 602,299.57C602,299.57 599,294.83 601.41,290.68C603.82,286.53 603.78,284.75 603.19,283.57C602.6,282.39 605.56,276.45 605.56,275.27C605.56,274.09 609.71,246.81 609.71,246.81C609.71,246.81 611.49,220.13 613.27,211.23C615.05,202.33 613.86,175.66 613.86,175.66C613.86,175.66 623.35,169.14 631.65,178Z" style="fill:rgb(222,214,239);fill-rule:nonzero;"/>
    </g>
    <circle cx="545.92" cy="61.61" r="23.72" style="fill:rgb(160,97,106);"/>
    <g transform="matrix(1,0,0,1,-46,-84.41)">
        <path d="M604.29,110.41C601.932,116.993 595.655,121.411 588.663,121.411C581.84,121.411 575.682,117.205 573.2,110.85C582.46,107.12 591.92,110.44 591.92,110.44C596.65,108.78 600.75,108.93 604.29,110.41Z" style="fill-opacity:0.1;fill-rule:nonzero;"/>
    </g>
    <g transform="matrix(1,0,0,1,-46,-84.41)">
        <path d="M591.92,111.63C591.92,111.63 546.27,95.63 557.54,173.29C557.54,173.29 567.62,179.81 575.32,175.66C575.32,175.66 569.99,121.71 590.74,124.08C611.49,126.45 607.93,174.48 607.93,174.48C607.93,174.48 619.79,178.03 623.35,171.48C626.91,164.93 622.16,101 591.92,111.63Z" style="fill:rgb(63,61,86);fill-rule:nonzero;"/>
    </g>
    <g transform="matrix(1,0,0,1,-46,-84.41)">
        <path d="M590.74,120.52C576.5,118.9 574.54,143.79 574.74,159.57C574.91,143.88 577.55,122.57 590.74,124.08C605.55,125.77 607.98,150.74 608.15,164.88C608.32,151.9 606.9,122.37 590.74,120.52Z" style="fill-opacity:0.1;fill-rule:nonzero;"/>
    </g>
    <g transform="matrix(1,0,0,1,-46,-84.41)">
        <path d="M557.54,169.73C556.508,162.932 555.917,156.074 555.77,149.2C555.721,157.264 556.312,165.32 557.54,173.29C558.768,181.26 567.62,179.81 575.32,175.66C575.32,175.66 575.2,174.38 575.06,172.23C567.39,176.1 557.54,169.73 557.54,169.73Z" style="fill-opacity:0.1;fill-rule:nonzero;"/>
    </g>
    <g transform="matrix(1,0,0,1,-46,-84.41)">
        <path d="M623.35,168C620.03,174.08 609.52,171.41 608.1,171C608.03,173.2 607.93,174.52 607.93,174.52C607.93,174.52 619.79,178.07 623.35,171.52C624.08,170.18 624.46,166.39 624.35,161.32C624.25,164.57 623.9,167 623.35,168Z" style="fill-opacity:0.1;fill-rule:nonzero;"/>
    </g>
    <g transform="matrix(1,0,0,1,-46,-84.41)">
        <path d="M872.73,757.37C877.47,748.59 872.09,737.83 865.91,730C859.73,722.17 852.18,714 852.34,704C852.57,689.65 867.79,681.19 879.96,673.58C888.981,667.939 897.302,661.249 904.75,653.65C907.75,650.6 910.62,647.34 912.37,643.44C914.89,637.84 914.82,631.44 914.66,625.32C914.133,604.847 913.133,584.4 911.66,563.98" style="fill:none;stroke:rgb(63,61,86);stroke-width:4px;"/>
    </g>
    <g transform="matrix(1,0,0,1,-46,-84.41)">
        <path d="M934.74,562.9C934.393,555.296 930.178,548.376 923.58,544.58L918.58,554.48L918.73,542.48C916.67,541.871 914.533,541.561 912.384,541.561C900.112,541.561 890.014,551.659 890.014,563.931C890.014,576.203 900.112,586.301 912.384,586.301C924.656,586.301 934.754,576.203 934.754,563.931C934.754,563.584 934.746,563.237 934.73,562.89L934.74,562.9Z" style="fill:rgb(222,214,239);fill-rule:nonzero;"/>
    </g>
    <g transform="matrix(1,0,0,1,-46,-84.41)">
        <path d="M894.86,714.29C891.034,721.73 883.341,726.425 874.975,726.425C862.709,726.425 852.615,716.331 852.615,704.065C852.615,691.798 862.709,681.705 874.975,681.705C884.304,681.705 892.696,687.543 895.94,696.29L881.94,707.66L897.31,704.09C897.318,707.636 896.478,711.134 894.86,714.29Z" style="fill:rgb(222,214,239);fill-rule:nonzero;"/>
    </g>
    <g transform="matrix(1,0,0,1,-46,-84.41)">
        <path d="M883.81,670.86C883.494,670.873 883.179,670.88 882.863,670.88C870.591,670.88 860.493,660.782 860.493,648.51C860.493,638.551 867.144,629.735 876.72,627L876.6,636.22L881.66,626.22L881.72,626.22C882.122,626.198 882.524,626.187 882.926,626.187C895.197,626.187 905.296,636.286 905.296,648.557C905.296,660.496 895.739,670.438 883.81,670.91L883.81,670.86Z" style="fill:rgb(222,214,239);fill-rule:nonzero;"/>
    </g>
    <g transform="matrix(1,0,0,1,-46,-84.41)">
        <path d="M938.11,634.73C937.761,634.746 937.413,634.754 937.064,634.754C924.792,634.754 914.694,624.656 914.694,612.384C914.694,600.113 924.792,590.014 937.064,590.014C940.893,590.014 944.659,590.998 948,592.87L944,603.7L952.13,595.9C956.747,600.135 959.378,606.12 959.378,612.385C959.378,624.26 949.922,634.172 938.06,634.73L938.11,634.73Z" style="fill:rgb(222,214,239);fill-rule:nonzero;"/>
    </g>
    <g transform="matrix(1,0,0,1,-46,-84.41)">
        <path d="M931.74,568.86C926.57,569.43 921.55,571.04 916.37,571.36C911.19,571.68 905.5,570.44 902.23,566.36C900.46,564.19 899.58,561.45 898.09,559.08C896.675,556.88 894.742,555.06 892.46,553.78C890.862,556.922 890.029,560.397 890.029,563.922C890.029,576.194 900.127,586.292 912.399,586.292C922.904,586.292 932.064,578.891 934.27,568.62C933.42,568.71 932.58,568.77 931.74,568.86Z" style="fill-opacity:0.1;fill-rule:nonzero;"/>
    </g>
    <g transform="matrix(1,0,0,1,-46,-84.41)">
        <path d="M938.11,634.73C937.768,634.746 937.426,634.754 937.084,634.754C924.801,634.754 914.694,624.646 914.694,612.364C914.694,609.064 915.424,605.805 916.83,602.82C918.611,604.014 920.14,605.547 921.33,607.33C922.92,609.73 923.89,612.51 925.76,614.72C929.24,618.81 935.2,620.15 940.6,619.91C946,619.67 951.2,618.13 956.6,617.63C957.35,617.57 958.1,617.52 958.86,617.5C956.579,627.207 948.071,634.272 938.11,634.73Z" style="fill-opacity:0.1;fill-rule:nonzero;"/>
    </g>
    <g transform="matrix(1,0,0,1,-46,-84.41)">
        <path d="M883.81,670.86C883.462,670.876 883.114,670.884 882.766,670.884C870.494,670.884 860.396,660.786 860.396,648.514C860.396,645.363 861.062,642.246 862.35,639.37C864.195,640.581 865.798,642.124 867.08,643.92C868.82,646.37 869.9,649.19 871.94,651.46C875.71,655.66 882.05,657.14 887.77,657C893.31,656.88 898.64,655.52 904.15,655.1C901.381,664.098 893.214,670.426 883.81,670.86Z" style="fill-opacity:0.1;fill-rule:nonzero;"/>
    </g>
    <g transform="matrix(1,0,0,1,-46,-84.41)">
        <path d="M894.86,714.29C891.063,721.819 883.319,726.587 874.886,726.587C862.614,726.587 852.516,716.489 852.516,704.217C852.516,701.404 853.047,698.616 854.08,696C855.924,697.209 857.579,698.685 858.99,700.38C861.12,702.97 862.52,705.91 864.99,708.32C869.56,712.81 876.94,714.66 883.51,714.83C887.301,714.872 891.09,714.691 894.86,714.29Z" style="fill-opacity:0.1;fill-rule:nonzero;"/>
    </g>
    <g transform="matrix(1,0,0,1,-46,-84.41)">
        <path d="M839,747.26C839,747.26 856.65,746.72 862,742.93C867.35,739.14 889.16,734.62 890.48,740.69C891.8,746.76 917.01,770.91 897.08,771.07C877.15,771.23 850.77,767.97 845.46,764.73C840.15,761.49 839,747.26 839,747.26Z" style="fill:rgb(101,99,128);fill-rule:nonzero;"/>
    </g>
    <g transform="matrix(1,0,0,1,-46,-84.41)">
        <path d="M897.4,769C877.47,769.16 851.09,765.89 845.78,762.66C841.78,760.19 840.13,751.36 839.59,747.28L839,747.28C839,747.28 840.12,761.52 845.43,764.75C850.74,767.98 877.12,771.25 897.05,771.09C902.8,771.09 904.79,769 904.68,765.97C903.88,767.78 901.69,768.92 897.4,769Z" style="fill-opacity:0.2;fill-rule:nonzero;"/>
    </g>
    <g transform="matrix(1,0,0,1,-46,-84.41)">
        <path d="M369,127.27L350.75,138.84L361.83,118.69C358.704,116.191 354.832,114.804 350.83,114.75L350.53,114.75C349.264,114.768 347.999,114.674 346.75,114.47L340.56,118.39L343.21,113.57C338.83,112.04 335.043,109.166 332.39,105.36L321.32,112.36L328.32,99.64C321.84,91.87 313.12,87.1 303.51,87.1C292,87.1 281.75,93.95 275.13,104.62C271.15,111.106 263.976,114.975 256.37,114.74L255.75,114.74C243.04,114.74 232.75,129.15 232.75,146.93C232.75,164.71 243.05,179.11 255.75,179.11C258.539,179.102 261.285,178.415 263.75,177.11C272.04,172.8 282.92,172.72 291.6,176.57C299.123,179.954 307.743,179.972 315.28,176.62C323.9,172.85 334.65,172.93 342.89,177.16C345.334,178.453 348.055,179.139 350.82,179.16C363.53,179.16 373.82,164.75 373.82,146.98C373.896,140.11 372.238,133.33 369,127.27Z" style="fill:rgb(242,242,242);fill-rule:nonzero;"/>
    </g>
    <g transform="matrix(1,0,0,1,-46,-84.41)">
        <path d="M334.59,174.36C327.951,173.098 321.084,173.843 314.87,176.5C307.336,179.849 298.72,179.831 291.2,176.45C282.51,172.6 271.63,172.68 263.34,176.99C260.875,178.295 258.129,178.982 255.34,178.99C244.05,178.99 234.66,167.61 232.7,152.61C234.955,150.967 236.871,148.902 238.34,146.53C245,135.87 255.21,129 266.72,129C278.23,129 288.36,135.77 294.98,146.32C298.993,152.796 306.122,156.713 313.74,156.63L314,156.63C323,156.64 330.8,163.85 334.59,174.36Z" style="fill-opacity:0.03;fill-rule:nonzero;"/>
    </g>
    <g transform="matrix(1,0,0,1,-46,-84.41)">
        <path d="M846.07,150.83L837,156.6L842.53,146.6C840.968,145.337 839.028,144.633 837.02,144.6L836.88,144.6C836.247,144.609 835.615,144.562 834.99,144.46L831.9,146.46L833.2,144C831.015,143.239 829.125,141.807 827.8,139.91L822.28,143.41L825.77,137.07C822.798,133.234 818.251,130.933 813.4,130.81C807.65,130.81 802.54,134.23 799.24,139.55C797.246,142.771 793.666,144.684 789.88,144.55L789.57,144.55C783.23,144.55 778.09,151.74 778.09,160.55C778.09,169.36 783.23,176.6 789.57,176.6C790.965,176.595 792.337,176.252 793.57,175.6C797.934,173.48 803.017,173.381 807.46,175.33C811.217,177.002 815.513,177.002 819.27,175.33C823.68,173.42 828.709,173.519 833.04,175.6C834.273,176.252 835.645,176.596 837.04,176.6C843.38,176.6 848.52,169.42 848.52,160.55C848.53,157.156 847.687,153.814 846.07,150.83Z" style="fill:rgb(242,242,242);fill-rule:nonzero;"/>
    </g>
    <g transform="matrix(1,0,0,1,-46,-84.41)">
        <path d="M828.92,174.32C825.61,173.695 822.188,174.067 819.09,175.39C815.333,177.062 811.037,177.062 807.28,175.39C802.833,173.44 797.748,173.539 793.38,175.66C792.148,176.315 790.775,176.658 789.38,176.66C783.74,176.66 779.06,170.99 778.08,163.51C779.202,162.698 780.159,161.68 780.9,160.51C784.2,155.19 789.32,151.78 795.06,151.78C800.8,151.78 805.85,155.15 809.15,160.41C811.15,163.643 814.709,165.597 818.51,165.55L818.66,165.55C823.15,165.48 827,169.08 828.92,174.32Z" style="fill-opacity:0.03;fill-rule:nonzero;"/>
    </g>
    <g transform="matrix(1,0,0,1,-46,-84.41)">
        <path d="M250.34,300.27L265,309.55L256.12,293.4C258.637,291.396 261.753,290.287 264.97,290.25L265.2,290.25C266.205,290.265 267.208,290.191 268.2,290.03L273.15,293.17L271,289.31C274.506,288.077 277.539,285.775 279.67,282.73L288.54,288.35L283,278.16C288.19,271.94 295.18,268.16 302.87,268.16C312.1,268.16 320.31,273.64 325.62,282.16C328.801,287.35 334.535,290.451 340.62,290.27L341.12,290.27C351.3,290.27 359.55,301.81 359.55,316.05C359.55,330.29 351.3,341.84 341.12,341.84C338.878,341.831 336.671,341.279 334.69,340.23C327.68,336.824 319.516,336.667 312.38,339.8C306.338,342.501 299.422,342.501 293.38,339.8C286.297,336.732 278.219,336.889 271.26,340.23C269.298,341.251 267.121,341.789 264.91,341.8C254.72,341.8 246.47,330.26 246.47,316.01C246.422,310.522 247.753,305.11 250.34,300.27Z" style="fill:rgb(242,242,242);fill-rule:nonzero;"/>
    </g>
    <g transform="matrix(1,0,0,1,-46,-84.41)">
        <path d="M277.89,338C283.21,336.997 288.71,337.596 293.69,339.72C299.732,342.421 306.648,342.421 312.69,339.72C319.829,336.586 327.997,336.744 335.01,340.15C336.988,341.199 339.191,341.751 341.43,341.76C350.48,341.76 358,332.65 359.57,320.63C357.764,319.308 356.23,317.652 355.05,315.75C349.74,307.21 341.53,301.75 332.3,301.75C323.07,301.75 314.97,307.17 309.66,315.63C306.45,320.808 300.752,323.942 294.66,323.88L294.43,323.88C287.17,323.81 280.93,329.59 277.89,338Z" style="fill-opacity:0.03;fill-rule:nonzero;"/>
    </g>
</svg>
